<svg xmlns="http://www.w3.org/2000/svg" xmlns:xlink="http://www.w3.org/1999/xlink" width="15px" height="21px">
<path fill-rule="evenodd"  fill="rgb(107, 201, 242)"
      d="M7.500,-0.000 L7.500,-0.000 C3.351,-0.000 -0.000,3.391 -0.000,7.590 C-0.000,9.054 0.462,10.451 1.105,11.600 L5.993,20.161 C6.299,20.720 6.917,21.000 7.500,21.000 C8.083,21.000 8.670,20.720 9.007,20.161 L13.895,11.606 C14.543,10.456 15.000,9.084 15.000,7.595 C15.000,3.396 11.649,-0.000 7.500,-0.000 ZM7.500,9.832 C5.993,9.832 4.762,8.586 4.762,7.061 C4.762,5.536 5.993,4.290 7.500,4.290 C9.007,4.290 10.238,5.536 10.238,7.061 C10.238,8.591 9.007,9.832 7.500,9.832 Z"/>
</svg>